<?xml version="1.0" standalone="no"?>
<!DOCTYPE svg PUBLIC "-//W3C//DTD SVG 20010904//EN"
 "http://www.w3.org/TR/2001/REC-SVG-20010904/DTD/svg10.dtd">
<svg version="1.0" xmlns="http://www.w3.org/2000/svg"
 width="339.000000pt" height="339.000000pt" viewBox="0 0 339.000000 339.000000"
 preserveAspectRatio="xMidYMid meet">
<metadata>
Created by potrace 1.14, written by Peter Selinger 2001-2017
</metadata>
<g transform="translate(0.000000,339.000000) scale(0.100000,-0.100000)"
fill="#000000" stroke="none">
<path d="M1485 2611 c-143 -37 -272 -71 -288 -75 l-27 -6 2 -327 3 -326 185
-113 c101 -63 193 -114 203 -114 10 0 56 10 102 21 l85 21 117 -73 c65 -40
125 -73 133 -73 8 0 57 10 108 23 l92 23 0 113 0 114 -30 21 -30 21 0 293 0
293 -189 117 c-104 64 -193 116 -198 115 -4 -1 -125 -31 -268 -68z m334 15
l53 -33 -91 -23 -91 -22 -51 33 c-29 18 -47 35 -41 37 47 15 140 41 152 41 8
0 39 -14 69 -33z m-195 -47 c26 -17 46 -32 45 -34 -2 -2 -41 -13 -86 -24 l-82
-21 -51 31 c-28 17 -49 33 -46 36 6 6 136 41 156 42 8 0 37 -13 64 -30z m321
-31 l50 -31 -88 -23 -89 -22 -55 33 -55 33 59 17 c32 9 63 18 68 20 29 10 65
1 110 -27z m-515 -19 c28 -17 50 -33 48 -34 -2 -2 -40 -13 -86 -24 l-83 -22
-54 33 c-30 18 -52 34 -50 36 5 6 137 40 157 41 10 1 40 -13 68 -30z m258 -46
c-3 -42 -6 -47 -32 -54 -24 -7 -40 -2 -82 24 -29 17 -51 34 -48 37 7 7 123 38
147 39 15 1 18 -6 15 -46z m51 23 c15 -8 34 -23 41 -33 8 -10 11 -15 6 -11 -4
3 -26 0 -47 -7 l-40 -14 3 39 c1 22 4 40 5 40 2 0 16 -6 32 -14z m344 -44 c34
-23 33 -24 -62 -47 l-75 -18 -53 29 c-29 15 -53 31 -53 34 0 4 37 15 83 26 88
22 93 21 160 -24z m-844 13 c22 -13 43 -30 48 -37 13 -22 10 -72 -6 -91 -12
-14 -12 -18 -2 -15 10 2 15 -9 16 -39 2 -24 -1 -43 -5 -43 -13 0 -30 26 -22
35 4 5 2 5 -5 1 -13 -7 -73 19 -73 31 0 4 24 32 53 62 28 29 46 50 38 46 -10
-6 -12 -4 -6 6 8 12 6 12 -8 0 -9 -7 -15 -17 -12 -21 2 -4 -11 -22 -30 -40
l-35 -34 0 82 c0 45 2 82 5 82 3 0 23 -11 44 -25z m351 -45 c21 -12 16 -14
-76 -37 l-81 -20 -52 31 c-28 17 -51 33 -51 36 0 4 37 15 83 26 l82 21 40 -24
c22 -13 47 -28 55 -33z m277 -1 c63 -36 62 -38 -44 -64 l-72 -17 -50 29 c-28
15 -51 31 -51 34 0 6 39 17 159 48 2 1 28 -13 58 -30z m263 -97 l0 -99 -82
-22 c-46 -12 -86 -21 -90 -21 -5 0 -8 44 -8 98 l0 98 83 21 c45 11 85 21 90
22 4 1 7 -43 7 -97z m-743 53 c18 -11 33 -27 33 -35 7 -181 7 -181 -38 -154
-26 15 -29 20 -19 33 10 14 10 14 -5 3 -30 -24 -38 -4 -38 93 0 105 -3 102 67
60z m292 -9 l55 -34 -39 -11 c-131 -36 -137 -36 -195 0 -33 20 -48 35 -39 38
26 8 144 39 154 40 6 0 34 -15 64 -33z m251 -96 l0 -99 -42 -11 c-24 -6 -59
-15 -78 -21 -62 -16 -61 -18 -58 89 l3 97 80 22 c44 12 83 22 88 22 4 1 7 -44
7 -99z m-405 21 c19 -8 20 -18 20 -102 -2 -104 -1 -104 -65 -64 l-40 25 0 95
0 95 33 -20 c17 -11 41 -24 52 -29z m215 -70 l0 -99 -85 -21 c-46 -11 -87 -21
-90 -21 -3 0 -5 44 -5 99 l0 99 78 20 c42 11 83 20 90 21 9 1 12 -25 12 -98z
m-448 -4 c8 -13 5 -88 -5 -104 -4 -6 -3 -14 1 -17 12 -7 8 -62 -4 -56 -5 3 -8
9 -6 13 1 5 -2 6 -8 2 -6 -4 -26 3 -45 15 l-35 22 2 93 1 93 46 -26 c25 -14
49 -30 53 -35z m838 -106 c0 -81 -3 -100 -16 -105 -37 -14 -44 -7 -44 42 0 47
0 48 -56 82 -34 20 -51 36 -43 39 19 6 142 39 152 40 4 1 7 -44 7 -98z m-755
57 c11 -12 15 -18 9 -14 -7 3 -17 -1 -24 -9 -7 -8 -9 -15 -5 -15 5 0 0 -10
-11 -22 -10 -13 -3 -8 17 10 52 47 59 43 60 -38 3 -142 7 -134 -51 -98 l-50
31 -1 76 c0 42 -2 84 -4 94 -3 14 1 16 18 11 12 -3 31 -15 42 -26z m619 -39
c57 -36 55 -38 -50 -63 l-71 -17 -52 31 c-29 18 -50 34 -47 37 6 6 136 41 156
42 8 0 37 -13 64 -30z m-486 -40 l43 -27 87 24 c48 13 90 24 95 24 4 0 7 -45
7 -99 l0 -99 -78 -21 c-43 -12 -84 -21 -90 -21 -8 0 -12 28 -12 91 0 49 -4 88
-8 85 -4 -3 -8 -37 -7 -75 1 -39 -2 -76 -5 -81 -4 -6 -26 2 -53 20 l-47 30 0
95 c0 74 3 94 13 89 6 -5 31 -20 55 -35z m325 -32 l32 -22 -5 -93 -5 -94 -35
24 c-19 13 -42 27 -51 30 -11 4 -15 18 -13 54 1 27 2 71 3 97 1 53 2 53 74 4z
m225 -74 l-3 -97 -55 -18 c-30 -10 -44 -16 -30 -13 97 19 98 19 155 -19 l55
-36 0 -103 0 -103 -77 -19 c-43 -10 -84 -20 -90 -22 -10 -4 -13 19 -13 96 l0
100 38 10 c20 5 50 13 65 17 15 3 26 8 24 11 -3 2 -33 -3 -66 -12 l-62 -16
-55 35 -55 34 28 11 28 11 -32 -6 -33 -6 0 100 0 100 73 20 c115 32 108 37
105 -75z m-849 73 c9 -10 8 -16 -4 -26 -13 -11 -15 -8 -15 14 0 30 3 32 19 12z
m71 -38 c12 -4 15 -24 16 -94 1 -49 0 -92 -3 -96 -2 -4 -26 6 -53 23 -57 35
-63 58 -27 98 l22 26 -22 -19 -23 -19 0 33 c0 21 8 43 22 57 18 20 24 21 37 9
9 -7 23 -15 31 -18z m850 -99 c0 -38 -2 -69 -5 -69 -3 0 -17 7 -30 16 -21 14
-25 24 -25 65 0 42 3 51 23 58 12 5 25 7 30 4 4 -2 7 -35 7 -74z m-747 24 c-1
-6 8 -10 20 -9 18 1 22 -4 23 -34 0 -19 -7 -44 -15 -54 -9 -11 -10 -16 -3 -12
9 5 12 -6 12 -44 l0 -51 -28 17 c-74 43 -75 45 -73 172 l1 64 33 -20 c17 -10
31 -24 30 -29z m95 -45 c9 -9 7 -18 -11 -37 l-22 -26 27 24 c25 22 29 23 51 9
17 -12 23 -24 22 -49 -2 -52 9 -60 15 -10 l5 44 85 23 c47 13 86 24 88 24 1 0
2 -45 2 -100 l0 -99 -42 -11 c-24 -6 -59 -15 -78 -21 -56 -15 -60 -13 -60 32
0 22 -4 38 -9 35 -5 -3 -7 -19 -6 -36 3 -36 -2 -37 -49 -5 -20 14 -41 25 -46
25 -6 0 -10 41 -10 95 0 96 8 113 38 83z m357 -54 c24 -16 25 -21 25 -111 l0
-94 -50 28 -50 28 0 99 0 98 25 -16 c14 -9 36 -23 50 -32z m130 -81 c17 -11
20 -26 21 -108 l2 -94 -26 14 c-80 42 -79 42 -77 140 1 50 3 92 4 94 1 3 29
-14 76 -46z"/>
<path d="M1344 2368 l-19 -23 23 19 c21 18 27 26 19 26 -2 0 -12 -10 -23 -22z"/>
<path d="M2148 1803 c7 -3 16 -2 19 1 4 3 -2 6 -13 5 -11 0 -14 -3 -6 -6z"/>
<path d="M1214 1908 l-19 -23 23 19 c21 18 27 26 19 26 -2 0 -12 -10 -23 -22z"/>
<path d="M1339 1883 c-13 -16 -12 -17 4 -4 9 7 17 15 17 17 0 8 -8 3 -21 -13z"/>
<path d="M1757 1393 c-4 -3 -7 -73 -7 -155 0 -168 11 -211 56 -229 35 -13 69
-8 69 10 0 9 -11 15 -29 16 -43 1 -56 28 -56 117 l0 78 35 0 c24 0 35 5 35 15
0 10 -11 15 -35 15 l-35 0 0 70 c0 52 -3 70 -13 70 -8 0 -17 -3 -20 -7z"/>
<path d="M2070 1229 l0 -171 30 -29 c34 -34 82 -38 88 -6 3 14 -1 17 -21 12
-19 -5 -29 0 -46 21 -17 22 -21 40 -21 100 l0 74 35 0 c24 0 35 5 35 15 0 10
-11 15 -35 15 l-35 0 0 70 c0 56 -3 70 -15 70 -13 0 -15 -26 -15 -171z"/>
<path d="M2840 1238 c0 -144 2 -167 20 -195 19 -32 52 -48 87 -41 30 6 22 33
-9 30 -42 -5 -58 28 -58 120 l0 78 35 0 c24 0 35 5 35 15 0 10 -11 15 -35 15
l-35 0 0 70 c0 63 -2 70 -20 70 -19 0 -20 -7 -20 -162z"/>
<path d="M436 1275 c-43 -47 -29 -91 44 -136 51 -32 64 -61 38 -87 -15 -15
-60 -16 -75 -1 -13 13 -43 5 -43 -11 0 -6 16 -18 34 -27 68 -32 146 19 131 87
-5 24 -20 40 -60 65 -58 37 -67 51 -53 78 10 20 58 23 76 5 9 -9 15 -9 24 0
17 17 -9 41 -55 49 -30 5 -40 1 -61 -22z"/>
<path d="M1160 1293 c-31 -11 -81 -69 -90 -105 -26 -94 44 -188 141 -188 64 0
149 64 121 92 -8 8 -19 3 -40 -20 -54 -58 -142 -49 -177 18 -30 58 -28 60 110
60 l125 0 0 27 c0 36 -37 88 -77 107 -33 16 -83 20 -113 9z m119 -59 c54 -45
43 -54 -69 -54 -112 0 -123 9 -69 54 21 18 42 26 69 26 27 0 48 -8 69 -26z"/>
<path d="M1485 1281 c-42 -25 -65 -64 -71 -119 -16 -145 155 -217 256 -108 20
23 22 29 10 36 -11 7 -24 0 -48 -23 -27 -26 -41 -32 -78 -32 -39 0 -50 5 -75
33 -16 18 -29 43 -29 57 l0 25 126 0 127 0 -7 32 c-19 97 -130 149 -211 99z
m146 -50 c16 -16 29 -34 29 -40 0 -7 -37 -11 -105 -11 l-106 0 12 23 c19 38
51 57 97 57 35 0 49 -6 73 -29z"/>
<path d="M2320 1281 c-38 -20 -80 -89 -80 -130 1 -39 35 -107 64 -126 61 -40
165 -24 202 32 27 41 1 52 -36 15 -57 -57 -140 -49 -175 18 -30 59 -28 60 111
60 l127 0 -6 36 c-15 91 -123 141 -207 95z m139 -47 c54 -45 43 -54 -69 -54
-103 0 -115 5 -87 41 36 46 109 52 156 13z"/>
<path d="M977 1237 c-13 -28 -32 -73 -43 -99 -10 -27 -22 -48 -25 -48 -4 0
-25 42 -47 93 -23 50 -45 91 -49 91 -4 -1 -26 -43 -47 -93 -22 -50 -42 -91
-46 -91 -4 0 -25 43 -46 95 -29 71 -44 95 -57 95 -10 0 -17 -4 -15 -9 32 -81
114 -271 118 -271 3 0 23 42 44 93 21 50 42 96 46 100 4 5 27 -37 50 -93 24
-55 47 -97 51 -93 5 6 89 193 116 259 2 6 -3 14 -12 17 -11 5 -21 -7 -38 -46z"/>
<path d="M2580 1275 c0 -3 18 -30 40 -59 22 -29 40 -59 40 -66 0 -6 -23 -43
-50 -81 -46 -64 -48 -69 -28 -69 17 0 34 17 64 60 l42 61 43 -60 c31 -43 51
-61 67 -61 21 0 18 7 -33 75 l-55 75 38 53 c55 75 56 77 33 77 -12 0 -34 -19
-56 -50 l-37 -51 -36 51 c-20 29 -42 50 -53 50 -11 0 -19 -2 -19 -5z"/>
<path d="M716 842 c-5 -9 -56 -142 -56 -148 0 -14 19 0 28 22 15 32 62 31 77
-3 5 -13 15 -23 22 -23 9 0 9 7 -1 33 -7 17 -21 53 -30 80 -17 45 -29 57 -40
39z m29 -69 c5 -20 3 -23 -19 -23 -24 0 -24 2 -14 31 11 32 21 29 33 -8z"/>
<path d="M860 770 c0 -47 4 -80 10 -80 6 0 10 33 10 80 0 47 -4 80 -10 80 -6
0 -10 -33 -10 -80z"/>
<path d="M1070 830 c-47 -47 -17 -143 44 -141 81 3 76 0 76 42 0 39 0 39 -37
38 -32 -1 -34 -2 -14 -8 33 -9 37 -26 9 -45 -28 -20 -42 -20 -62 0 -19 18 -21
85 -4 102 17 17 54 15 73 -4 9 -9 19 -13 23 -9 11 11 -38 45 -64 45 -13 0 -33
-9 -44 -20z"/>
<path d="M1260 770 l0 -80 61 0 c37 0 58 4 54 10 -3 6 -26 10 -51 10 -40 0
-44 2 -44 25 0 23 4 25 45 25 25 0 45 5 45 10 0 6 -20 10 -45 10 -41 0 -45 2
-45 25 0 23 3 25 51 25 31 0 48 4 44 10 -3 6 -31 10 -61 10 l-54 0 0 -80z"/>
<path d="M1447 843 c-11 -11 -8 -153 3 -153 6 0 10 25 10 55 0 30 3 55 8 55 4
0 22 -25 40 -55 47 -78 62 -73 62 19 0 41 -4 78 -10 81 -6 4 -10 -17 -10 -54
0 -34 -3 -61 -7 -61 -5 0 -23 27 -42 60 -34 59 -41 66 -54 53z"/>
<path d="M1640 770 l0 -80 61 0 c37 0 58 4 54 10 -3 6 -26 10 -51 10 -40 0
-44 2 -44 25 0 23 4 25 45 25 25 0 45 5 45 10 0 6 -20 10 -45 10 -41 0 -45 2
-45 25 0 23 4 25 45 25 25 0 45 5 45 10 0 6 -25 10 -55 10 l-55 0 0 -80z"/>
<path d="M1827 843 c-4 -3 -7 -39 -7 -80 0 -58 3 -73 15 -73 10 0 15 11 15 35
0 29 4 35 21 35 34 0 59 -19 59 -45 0 -14 5 -25 11 -25 7 0 9 12 5 33 -8 43
-9 49 -1 73 10 32 -19 54 -69 54 -23 0 -46 -3 -49 -7z m93 -28 c18 -21 -4 -45
-41 -45 -26 0 -29 4 -29 30 0 26 3 30 29 30 16 0 34 -7 41 -15z"/>
<path d="M2061 832 c-13 -24 -51 -125 -51 -134 0 -16 16 -7 25 15 15 34 62 35
77 3 11 -26 34 -37 26 -13 -3 6 -15 42 -28 80 -25 70 -33 79 -49 49z m17 -80
c-27 -5 -30 1 -17 34 l11 29 13 -30 c12 -27 12 -30 -7 -33z"/>
<path d="M2190 840 c0 -5 11 -10 25 -10 24 0 25 -2 25 -70 0 -40 4 -70 10 -70
6 0 10 30 10 70 l0 70 31 0 c17 0 28 4 24 10 -3 6 -33 10 -66 10 -33 0 -59 -4
-59 -10z"/>
<path d="M2390 825 c-46 -49 -23 -124 42 -140 22 -6 33 -1 58 23 33 34 37 59
15 101 -25 48 -78 56 -115 16z m96 -20 c11 -16 14 -34 9 -55 -16 -73 -105 -57
-105 18 0 45 14 62 52 62 18 0 33 -8 44 -25z"/>
<path d="M2587 843 c-11 -11 -8 -153 3 -153 6 0 10 14 10 30 0 34 17 45 55 36
18 -5 27 -15 32 -36 3 -17 10 -30 15 -30 6 0 8 14 4 33 -8 43 -9 49 -1 73 10
32 -19 54 -69 54 -23 0 -46 -3 -49 -7z m93 -28 c18 -21 -4 -45 -42 -45 -30 0
-44 19 -34 45 3 9 18 15 34 15 16 0 35 -7 42 -15z"/>
</g>
</svg>
